<?xml version="1.0" standalone="no"?>
 <!DOCTYPE svg PUBLIC "-//W3C//DTD SVG 1.1//EN" 
 "http://www.w3.org/Graphics/SVG/1.1/DTD/svg11.dtd"> 
<svg
  xmlns:svg="http://www.w3.org/2000/svg"
  xmlns="http://www.w3.org/2000/svg"
  xmlns:xlink="http://www.w3.org/1999/xlink"
  version="1.1"
  width="14.8336mm" height="14.8336mm" viewBox="0.0000 0.0000 14.8336 14.8336">
<title>SVG Image created as RYLR993.svg date 2025/12/03 00:55:54 </title>
  <desc>Image generated by PCBNEW </desc>
<g style="fill:#000000; fill-opacity:1.0000;stroke:#000000; stroke-opacity:1.0000;
stroke-linecap:round; stroke-linejoin:round;"
 transform="translate(0 0) scale(1 1)">
</g>
<g style="fill:#000000; fill-opacity:1.0000; 
stroke:#000000; stroke-width:0.0212; stroke-opacity:1; 
stroke-linecap:round; stroke-linejoin:round;">
<rect x="-5.000000" y="-5.000000" width="24.850000" height="24.850000" rx="0.000000" />
<path style="fill:#37CBCB; fill-opacity:1.0000; stroke:none;fill-rule:evenodd;"
d="M 0.3250,3.3250
0.3250,2.5250
2.1250,2.5250
2.1250,3.3250
Z" /> 
<path style="fill:#37CBCB; fill-opacity:1.0000; stroke:none;fill-rule:evenodd;"
d="M 0.3250,4.3250
0.3250,3.5250
2.1250,3.5250
2.1250,4.3250
Z" /> 
<path style="fill:#37CBCB; fill-opacity:1.0000; stroke:none;fill-rule:evenodd;"
d="M 0.3250,5.3250
0.3250,4.5250
2.1250,4.5250
2.1250,5.3250
Z" /> 
<path style="fill:#37CBCB; fill-opacity:1.0000; stroke:none;fill-rule:evenodd;"
d="M 0.3250,6.3250
0.3250,5.5250
2.1250,5.5250
2.1250,6.3250
Z" /> 
<path style="fill:#37CBCB; fill-opacity:1.0000; stroke:none;fill-rule:evenodd;"
d="M 0.3250,7.3250
0.3250,6.5250
2.1250,6.5250
2.1250,7.3250
Z" /> 
<path style="fill:#37CBCB; fill-opacity:1.0000; stroke:none;fill-rule:evenodd;"
d="M 0.3250,8.3250
0.3250,7.5250
2.1250,7.5250
2.1250,8.3250
Z" /> 
<path style="fill:#37CBCB; fill-opacity:1.0000; stroke:none;fill-rule:evenodd;"
d="M 0.3250,9.3250
0.3250,8.5250
2.1250,8.5250
2.1250,9.3250
Z" /> 
<path style="fill:#37CBCB; fill-opacity:1.0000; stroke:none;fill-rule:evenodd;"
d="M 0.3250,10.3250
0.3250,9.5250
2.1250,9.5250
2.1250,10.3250
Z" /> 
<path style="fill:#37CBCB; fill-opacity:1.0000; stroke:none;fill-rule:evenodd;"
d="M 0.3250,11.3250
0.3250,10.5250
2.1250,10.5250
2.1250,11.3250
Z" /> 
<path style="fill:#37CBCB; fill-opacity:1.0000; stroke:none;fill-rule:evenodd;"
d="M 0.3250,12.3250
0.3250,11.5250
2.1250,11.5250
2.1250,12.3250
Z" /> 
<path style="fill:#37CBCB; fill-opacity:1.0000; stroke:none;fill-rule:evenodd;"
d="M 2.3250,14.5250
1.5250,14.5250
1.5250,12.7250
2.3250,12.7250
Z" /> 
<path style="fill:#37CBCB; fill-opacity:1.0000; stroke:none;fill-rule:evenodd;"
d="M 3.3250,14.5250
2.5250,14.5250
2.5250,12.7250
3.3250,12.7250
Z" /> 
<path style="fill:#37CBCB; fill-opacity:1.0000; stroke:none;fill-rule:evenodd;"
d="M 4.3250,14.5250
3.5250,14.5250
3.5250,12.7250
4.3250,12.7250
Z" /> 
<path style="fill:#37CBCB; fill-opacity:1.0000; stroke:none;fill-rule:evenodd;"
d="M 5.3250,14.5250
4.5250,14.5250
4.5250,12.7250
5.3250,12.7250
Z" /> 
<path style="fill:#37CBCB; fill-opacity:1.0000; stroke:none;fill-rule:evenodd;"
d="M 6.3250,14.5250
5.5250,14.5250
5.5250,12.7250
6.3250,12.7250
Z" /> 
<path style="fill:#37CBCB; fill-opacity:1.0000; stroke:none;fill-rule:evenodd;"
d="M 7.3250,14.5250
6.5250,14.5250
6.5250,12.7250
7.3250,12.7250
Z" /> 
<path style="fill:#37CBCB; fill-opacity:1.0000; stroke:none;fill-rule:evenodd;"
d="M 8.3250,14.5250
7.5250,14.5250
7.5250,12.7250
8.3250,12.7250
Z" /> 
<path style="fill:#37CBCB; fill-opacity:1.0000; stroke:none;fill-rule:evenodd;"
d="M 9.3250,14.5250
8.5250,14.5250
8.5250,12.7250
9.3250,12.7250
Z" /> 
<path style="fill:#37CBCB; fill-opacity:1.0000; stroke:none;fill-rule:evenodd;"
d="M 10.3250,14.5250
9.5250,14.5250
9.5250,12.7250
10.3250,12.7250
Z" /> 
<path style="fill:#37CBCB; fill-opacity:1.0000; stroke:none;fill-rule:evenodd;"
d="M 11.3250,14.5250
10.5250,14.5250
10.5250,12.7250
11.3250,12.7250
Z" /> 
<path style="fill:#37CBCB; fill-opacity:1.0000; stroke:none;fill-rule:evenodd;"
d="M 12.3250,14.5250
11.5250,14.5250
11.5250,12.7250
12.3250,12.7250
Z" /> 
<path style="fill:#37CBCB; fill-opacity:1.0000; stroke:none;fill-rule:evenodd;"
d="M 13.3250,14.5250
12.5250,14.5250
12.5250,12.7250
13.3250,12.7250
Z" /> 
<path style="fill:#37CBCB; fill-opacity:1.0000; stroke:none;fill-rule:evenodd;"
d="M 14.5250,11.5250
14.5250,12.3250
12.7250,12.3250
12.7250,11.5250
Z" /> 
<path style="fill:#37CBCB; fill-opacity:1.0000; stroke:none;fill-rule:evenodd;"
d="M 14.5250,10.5250
14.5250,11.3250
12.7250,11.3250
12.7250,10.5250
Z" /> 
<path style="fill:#37CBCB; fill-opacity:1.0000; stroke:none;fill-rule:evenodd;"
d="M 14.5250,9.5250
14.5250,10.3250
12.7250,10.3250
12.7250,9.5250
Z" /> 
<path style="fill:#37CBCB; fill-opacity:1.0000; stroke:none;fill-rule:evenodd;"
d="M 14.5250,8.5250
14.5250,9.3250
12.7250,9.3250
12.7250,8.5250
Z" /> 
<path style="fill:#37CBCB; fill-opacity:1.0000; stroke:none;fill-rule:evenodd;"
d="M 14.5250,7.5250
14.5250,8.3250
12.7250,8.3250
12.7250,7.5250
Z" /> 
<path style="fill:#37CBCB; fill-opacity:1.0000; stroke:none;fill-rule:evenodd;"
d="M 14.5250,6.5250
14.5250,7.3250
12.7250,7.3250
12.7250,6.5250
Z" /> 
<path style="fill:#37CBCB; fill-opacity:1.0000; stroke:none;fill-rule:evenodd;"
d="M 14.5250,5.5250
14.5250,6.3250
12.7250,6.3250
12.7250,5.5250
Z" /> 
<path style="fill:#37CBCB; fill-opacity:1.0000; stroke:none;fill-rule:evenodd;"
d="M 14.5250,4.5250
14.5250,5.3250
12.7250,5.3250
12.7250,4.5250
Z" /> 
<path style="fill:#37CBCB; fill-opacity:1.0000; stroke:none;fill-rule:evenodd;"
d="M 14.5250,3.5250
14.5250,4.3250
12.7250,4.3250
12.7250,3.5250
Z" /> 
<path style="fill:#37CBCB; fill-opacity:1.0000; stroke:none;fill-rule:evenodd;"
d="M 14.5250,2.5250
14.5250,3.3250
12.7250,3.3250
12.7250,2.5250
Z" /> 
<path style="fill:#37CBCB; fill-opacity:1.0000; stroke:none;fill-rule:evenodd;"
d="M 12.5250,0.3250
13.3250,0.3250
13.3250,2.1250
12.5250,2.1250
Z" /> 
<path style="fill:#37CBCB; fill-opacity:1.0000; stroke:none;fill-rule:evenodd;"
d="M 11.5250,0.3250
12.3250,0.3250
12.3250,2.1250
11.5250,2.1250
Z" /> 
<path style="fill:#37CBCB; fill-opacity:1.0000; stroke:none;fill-rule:evenodd;"
d="M 10.5250,0.3250
11.3250,0.3250
11.3250,2.1250
10.5250,2.1250
Z" /> 
<path style="fill:#37CBCB; fill-opacity:1.0000; stroke:none;fill-rule:evenodd;"
d="M 9.5250,0.3250
10.3250,0.3250
10.3250,2.1250
9.5250,2.1250
Z" /> 
<path style="fill:#37CBCB; fill-opacity:1.0000; stroke:none;fill-rule:evenodd;"
d="M 8.5250,0.3250
9.3250,0.3250
9.3250,2.1250
8.5250,2.1250
Z" /> 
<path style="fill:#37CBCB; fill-opacity:1.0000; stroke:none;fill-rule:evenodd;"
d="M 7.5250,0.3250
8.3250,0.3250
8.3250,2.1250
7.5250,2.1250
Z" /> 
<path style="fill:#37CBCB; fill-opacity:1.0000; stroke:none;fill-rule:evenodd;"
d="M 6.5250,0.3250
7.3250,0.3250
7.3250,2.1250
6.5250,2.1250
Z" /> 
<path style="fill:#37CBCB; fill-opacity:1.0000; stroke:none;fill-rule:evenodd;"
d="M 5.5250,0.3250
6.3250,0.3250
6.3250,2.1250
5.5250,2.1250
Z" /> 
<path style="fill:#37CBCB; fill-opacity:1.0000; stroke:none;fill-rule:evenodd;"
d="M 4.5250,0.3250
5.3250,0.3250
5.3250,2.1250
4.5250,2.1250
Z" /> 
<path style="fill:#37CBCB; fill-opacity:1.0000; stroke:none;fill-rule:evenodd;"
d="M 3.5250,0.3250
4.3250,0.3250
4.3250,2.1250
3.5250,2.1250
Z" /> 
<path style="fill:#37CBCB; fill-opacity:1.0000; stroke:none;fill-rule:evenodd;"
d="M 2.5250,0.3250
3.3250,0.3250
3.3250,2.1250
2.5250,2.1250
Z" /> 
<path style="fill:#37CBCB; fill-opacity:1.0000; stroke:none;fill-rule:evenodd;"
d="M 1.5250,0.3250
2.3250,0.3250
2.3250,2.1250
1.5250,2.1250
Z" /> 
<path style="fill:#279B00; fill-opacity:0.4000; stroke:none;fill-rule:evenodd;"
d="M 0.3250,3.3250
0.3250,2.5250
2.1250,2.5250
2.1250,3.3250
Z" /> 
<path style="fill:#279B00; fill-opacity:0.4000; stroke:none;fill-rule:evenodd;"
d="M 0.3250,4.3250
0.3250,3.5250
2.1250,3.5250
2.1250,4.3250
Z" /> 
<path style="fill:#279B00; fill-opacity:0.4000; stroke:none;fill-rule:evenodd;"
d="M 0.3250,5.3250
0.3250,4.5250
2.1250,4.5250
2.1250,5.3250
Z" /> 
<path style="fill:#279B00; fill-opacity:0.4000; stroke:none;fill-rule:evenodd;"
d="M 0.3250,6.3250
0.3250,5.5250
2.1250,5.5250
2.1250,6.3250
Z" /> 
<path style="fill:#279B00; fill-opacity:0.4000; stroke:none;fill-rule:evenodd;"
d="M 0.3250,7.3250
0.3250,6.5250
2.1250,6.5250
2.1250,7.3250
Z" /> 
<path style="fill:#279B00; fill-opacity:0.4000; stroke:none;fill-rule:evenodd;"
d="M 0.3250,8.3250
0.3250,7.5250
2.1250,7.5250
2.1250,8.3250
Z" /> 
<path style="fill:#279B00; fill-opacity:0.4000; stroke:none;fill-rule:evenodd;"
d="M 0.3250,9.3250
0.3250,8.5250
2.1250,8.5250
2.1250,9.3250
Z" /> 
<path style="fill:#279B00; fill-opacity:0.4000; stroke:none;fill-rule:evenodd;"
d="M 0.3250,10.3250
0.3250,9.5250
2.1250,9.5250
2.1250,10.3250
Z" /> 
<path style="fill:#279B00; fill-opacity:0.4000; stroke:none;fill-rule:evenodd;"
d="M 0.3250,11.3250
0.3250,10.5250
2.1250,10.5250
2.1250,11.3250
Z" /> 
<path style="fill:#279B00; fill-opacity:0.4000; stroke:none;fill-rule:evenodd;"
d="M 0.3250,12.3250
0.3250,11.5250
2.1250,11.5250
2.1250,12.3250
Z" /> 
<path style="fill:#279B00; fill-opacity:0.4000; stroke:none;fill-rule:evenodd;"
d="M 2.3250,14.5250
1.5250,14.5250
1.5250,12.7250
2.3250,12.7250
Z" /> 
<path style="fill:#279B00; fill-opacity:0.4000; stroke:none;fill-rule:evenodd;"
d="M 3.3250,14.5250
2.5250,14.5250
2.5250,12.7250
3.3250,12.7250
Z" /> 
<path style="fill:#279B00; fill-opacity:0.4000; stroke:none;fill-rule:evenodd;"
d="M 4.3250,14.5250
3.5250,14.5250
3.5250,12.7250
4.3250,12.7250
Z" /> 
<path style="fill:#279B00; fill-opacity:0.4000; stroke:none;fill-rule:evenodd;"
d="M 5.3250,14.5250
4.5250,14.5250
4.5250,12.7250
5.3250,12.7250
Z" /> 
<path style="fill:#279B00; fill-opacity:0.4000; stroke:none;fill-rule:evenodd;"
d="M 6.3250,14.5250
5.5250,14.5250
5.5250,12.7250
6.3250,12.7250
Z" /> 
<path style="fill:#279B00; fill-opacity:0.4000; stroke:none;fill-rule:evenodd;"
d="M 7.3250,14.5250
6.5250,14.5250
6.5250,12.7250
7.3250,12.7250
Z" /> 
<path style="fill:#279B00; fill-opacity:0.4000; stroke:none;fill-rule:evenodd;"
d="M 8.3250,14.5250
7.5250,14.5250
7.5250,12.7250
8.3250,12.7250
Z" /> 
<path style="fill:#279B00; fill-opacity:0.4000; stroke:none;fill-rule:evenodd;"
d="M 9.3250,14.5250
8.5250,14.5250
8.5250,12.7250
9.3250,12.7250
Z" /> 
<path style="fill:#279B00; fill-opacity:0.4000; stroke:none;fill-rule:evenodd;"
d="M 10.3250,14.5250
9.5250,14.5250
9.5250,12.7250
10.3250,12.7250
Z" /> 
<path style="fill:#279B00; fill-opacity:0.4000; stroke:none;fill-rule:evenodd;"
d="M 11.3250,14.5250
10.5250,14.5250
10.5250,12.7250
11.3250,12.7250
Z" /> 
<path style="fill:#279B00; fill-opacity:0.4000; stroke:none;fill-rule:evenodd;"
d="M 12.3250,14.5250
11.5250,14.5250
11.5250,12.7250
12.3250,12.7250
Z" /> 
<path style="fill:#279B00; fill-opacity:0.4000; stroke:none;fill-rule:evenodd;"
d="M 13.3250,14.5250
12.5250,14.5250
12.5250,12.7250
13.3250,12.7250
Z" /> 
<path style="fill:#279B00; fill-opacity:0.4000; stroke:none;fill-rule:evenodd;"
d="M 14.5250,11.5250
14.5250,12.3250
12.7250,12.3250
12.7250,11.5250
Z" /> 
<path style="fill:#279B00; fill-opacity:0.4000; stroke:none;fill-rule:evenodd;"
d="M 14.5250,10.5250
14.5250,11.3250
12.7250,11.3250
12.7250,10.5250
Z" /> 
<path style="fill:#279B00; fill-opacity:0.4000; stroke:none;fill-rule:evenodd;"
d="M 14.5250,9.5250
14.5250,10.3250
12.7250,10.3250
12.7250,9.5250
Z" /> 
<path style="fill:#279B00; fill-opacity:0.4000; stroke:none;fill-rule:evenodd;"
d="M 14.5250,8.5250
14.5250,9.3250
12.7250,9.3250
12.7250,8.5250
Z" /> 
<path style="fill:#279B00; fill-opacity:0.4000; stroke:none;fill-rule:evenodd;"
d="M 14.5250,7.5250
14.5250,8.3250
12.7250,8.3250
12.7250,7.5250
Z" /> 
<path style="fill:#279B00; fill-opacity:0.4000; stroke:none;fill-rule:evenodd;"
d="M 14.5250,6.5250
14.5250,7.3250
12.7250,7.3250
12.7250,6.5250
Z" /> 
<path style="fill:#279B00; fill-opacity:0.4000; stroke:none;fill-rule:evenodd;"
d="M 14.5250,5.5250
14.5250,6.3250
12.7250,6.3250
12.7250,5.5250
Z" /> 
<path style="fill:#279B00; fill-opacity:0.4000; stroke:none;fill-rule:evenodd;"
d="M 14.5250,4.5250
14.5250,5.3250
12.7250,5.3250
12.7250,4.5250
Z" /> 
<path style="fill:#279B00; fill-opacity:0.4000; stroke:none;fill-rule:evenodd;"
d="M 14.5250,3.5250
14.5250,4.3250
12.7250,4.3250
12.7250,3.5250
Z" /> 
<path style="fill:#279B00; fill-opacity:0.4000; stroke:none;fill-rule:evenodd;"
d="M 14.5250,2.5250
14.5250,3.3250
12.7250,3.3250
12.7250,2.5250
Z" /> 
<path style="fill:#279B00; fill-opacity:0.4000; stroke:none;fill-rule:evenodd;"
d="M 12.5250,0.3250
13.3250,0.3250
13.3250,2.1250
12.5250,2.1250
Z" /> 
<path style="fill:#279B00; fill-opacity:0.4000; stroke:none;fill-rule:evenodd;"
d="M 11.5250,0.3250
12.3250,0.3250
12.3250,2.1250
11.5250,2.1250
Z" /> 
<path style="fill:#279B00; fill-opacity:0.4000; stroke:none;fill-rule:evenodd;"
d="M 10.5250,0.3250
11.3250,0.3250
11.3250,2.1250
10.5250,2.1250
Z" /> 
<path style="fill:#279B00; fill-opacity:0.4000; stroke:none;fill-rule:evenodd;"
d="M 9.5250,0.3250
10.3250,0.3250
10.3250,2.1250
9.5250,2.1250
Z" /> 
<path style="fill:#279B00; fill-opacity:0.4000; stroke:none;fill-rule:evenodd;"
d="M 8.5250,0.3250
9.3250,0.3250
9.3250,2.1250
8.5250,2.1250
Z" /> 
<path style="fill:#279B00; fill-opacity:0.4000; stroke:none;fill-rule:evenodd;"
d="M 7.5250,0.3250
8.3250,0.3250
8.3250,2.1250
7.5250,2.1250
Z" /> 
<path style="fill:#279B00; fill-opacity:0.4000; stroke:none;fill-rule:evenodd;"
d="M 6.5250,0.3250
7.3250,0.3250
7.3250,2.1250
6.5250,2.1250
Z" /> 
<path style="fill:#279B00; fill-opacity:0.4000; stroke:none;fill-rule:evenodd;"
d="M 5.5250,0.3250
6.3250,0.3250
6.3250,2.1250
5.5250,2.1250
Z" /> 
<path style="fill:#279B00; fill-opacity:0.4000; stroke:none;fill-rule:evenodd;"
d="M 4.5250,0.3250
5.3250,0.3250
5.3250,2.1250
4.5250,2.1250
Z" /> 
<path style="fill:#279B00; fill-opacity:0.4000; stroke:none;fill-rule:evenodd;"
d="M 3.5250,0.3250
4.3250,0.3250
4.3250,2.1250
3.5250,2.1250
Z" /> 
<path style="fill:#279B00; fill-opacity:0.4000; stroke:none;fill-rule:evenodd;"
d="M 2.5250,0.3250
3.3250,0.3250
3.3250,2.1250
2.5250,2.1250
Z" /> 
<path style="fill:#279B00; fill-opacity:0.4000; stroke:none;fill-rule:evenodd;"
d="M 1.5250,0.3250
2.3250,0.3250
2.3250,2.1250
1.5250,2.1250
Z" /> 
<path style="fill:#4A5F65; fill-opacity:0.9000; stroke:none;fill-rule:evenodd;"
d="M 0.3250,3.3250
0.3250,2.5250
2.1250,2.5250
2.1250,3.3250
Z" /> 
<path style="fill:#4A5F65; fill-opacity:0.9000; stroke:none;fill-rule:evenodd;"
d="M 0.3250,4.3250
0.3250,3.5250
2.1250,3.5250
2.1250,4.3250
Z" /> 
<path style="fill:#4A5F65; fill-opacity:0.9000; stroke:none;fill-rule:evenodd;"
d="M 0.3250,5.3250
0.3250,4.5250
2.1250,4.5250
2.1250,5.3250
Z" /> 
<path style="fill:#4A5F65; fill-opacity:0.9000; stroke:none;fill-rule:evenodd;"
d="M 0.3250,6.3250
0.3250,5.5250
2.1250,5.5250
2.1250,6.3250
Z" /> 
<path style="fill:#4A5F65; fill-opacity:0.9000; stroke:none;fill-rule:evenodd;"
d="M 0.3250,7.3250
0.3250,6.5250
2.1250,6.5250
2.1250,7.3250
Z" /> 
<path style="fill:#4A5F65; fill-opacity:0.9000; stroke:none;fill-rule:evenodd;"
d="M 0.3250,8.3250
0.3250,7.5250
2.1250,7.5250
2.1250,8.3250
Z" /> 
<path style="fill:#4A5F65; fill-opacity:0.9000; stroke:none;fill-rule:evenodd;"
d="M 0.3250,9.3250
0.3250,8.5250
2.1250,8.5250
2.1250,9.3250
Z" /> 
<path style="fill:#4A5F65; fill-opacity:0.9000; stroke:none;fill-rule:evenodd;"
d="M 0.3250,10.3250
0.3250,9.5250
2.1250,9.5250
2.1250,10.3250
Z" /> 
<path style="fill:#4A5F65; fill-opacity:0.9000; stroke:none;fill-rule:evenodd;"
d="M 0.3250,11.3250
0.3250,10.5250
2.1250,10.5250
2.1250,11.3250
Z" /> 
<path style="fill:#4A5F65; fill-opacity:0.9000; stroke:none;fill-rule:evenodd;"
d="M 0.3250,12.3250
0.3250,11.5250
2.1250,11.5250
2.1250,12.3250
Z" /> 
<path style="fill:#4A5F65; fill-opacity:0.9000; stroke:none;fill-rule:evenodd;"
d="M 2.3250,14.5250
1.5250,14.5250
1.5250,12.7250
2.3250,12.7250
Z" /> 
<path style="fill:#4A5F65; fill-opacity:0.9000; stroke:none;fill-rule:evenodd;"
d="M 3.3250,14.5250
2.5250,14.5250
2.5250,12.7250
3.3250,12.7250
Z" /> 
<path style="fill:#4A5F65; fill-opacity:0.9000; stroke:none;fill-rule:evenodd;"
d="M 4.3250,14.5250
3.5250,14.5250
3.5250,12.7250
4.3250,12.7250
Z" /> 
<path style="fill:#4A5F65; fill-opacity:0.9000; stroke:none;fill-rule:evenodd;"
d="M 5.3250,14.5250
4.5250,14.5250
4.5250,12.7250
5.3250,12.7250
Z" /> 
<path style="fill:#4A5F65; fill-opacity:0.9000; stroke:none;fill-rule:evenodd;"
d="M 6.3250,14.5250
5.5250,14.5250
5.5250,12.7250
6.3250,12.7250
Z" /> 
<path style="fill:#4A5F65; fill-opacity:0.9000; stroke:none;fill-rule:evenodd;"
d="M 7.3250,14.5250
6.5250,14.5250
6.5250,12.7250
7.3250,12.7250
Z" /> 
<path style="fill:#4A5F65; fill-opacity:0.9000; stroke:none;fill-rule:evenodd;"
d="M 8.3250,14.5250
7.5250,14.5250
7.5250,12.7250
8.3250,12.7250
Z" /> 
<path style="fill:#4A5F65; fill-opacity:0.9000; stroke:none;fill-rule:evenodd;"
d="M 9.3250,14.5250
8.5250,14.5250
8.5250,12.7250
9.3250,12.7250
Z" /> 
<path style="fill:#4A5F65; fill-opacity:0.9000; stroke:none;fill-rule:evenodd;"
d="M 10.3250,14.5250
9.5250,14.5250
9.5250,12.7250
10.3250,12.7250
Z" /> 
<path style="fill:#4A5F65; fill-opacity:0.9000; stroke:none;fill-rule:evenodd;"
d="M 11.3250,14.5250
10.5250,14.5250
10.5250,12.7250
11.3250,12.7250
Z" /> 
<path style="fill:#4A5F65; fill-opacity:0.9000; stroke:none;fill-rule:evenodd;"
d="M 12.3250,14.5250
11.5250,14.5250
11.5250,12.7250
12.3250,12.7250
Z" /> 
<path style="fill:#4A5F65; fill-opacity:0.9000; stroke:none;fill-rule:evenodd;"
d="M 13.3250,14.5250
12.5250,14.5250
12.5250,12.7250
13.3250,12.7250
Z" /> 
<path style="fill:#4A5F65; fill-opacity:0.9000; stroke:none;fill-rule:evenodd;"
d="M 14.5250,11.5250
14.5250,12.3250
12.7250,12.3250
12.7250,11.5250
Z" /> 
<path style="fill:#4A5F65; fill-opacity:0.9000; stroke:none;fill-rule:evenodd;"
d="M 14.5250,10.5250
14.5250,11.3250
12.7250,11.3250
12.7250,10.5250
Z" /> 
<path style="fill:#4A5F65; fill-opacity:0.9000; stroke:none;fill-rule:evenodd;"
d="M 14.5250,9.5250
14.5250,10.3250
12.7250,10.3250
12.7250,9.5250
Z" /> 
<path style="fill:#4A5F65; fill-opacity:0.9000; stroke:none;fill-rule:evenodd;"
d="M 14.5250,8.5250
14.5250,9.3250
12.7250,9.3250
12.7250,8.5250
Z" /> 
<path style="fill:#4A5F65; fill-opacity:0.9000; stroke:none;fill-rule:evenodd;"
d="M 14.5250,7.5250
14.5250,8.3250
12.7250,8.3250
12.7250,7.5250
Z" /> 
<path style="fill:#4A5F65; fill-opacity:0.9000; stroke:none;fill-rule:evenodd;"
d="M 14.5250,6.5250
14.5250,7.3250
12.7250,7.3250
12.7250,6.5250
Z" /> 
<path style="fill:#4A5F65; fill-opacity:0.9000; stroke:none;fill-rule:evenodd;"
d="M 14.5250,5.5250
14.5250,6.3250
12.7250,6.3250
12.7250,5.5250
Z" /> 
<path style="fill:#4A5F65; fill-opacity:0.9000; stroke:none;fill-rule:evenodd;"
d="M 14.5250,4.5250
14.5250,5.3250
12.7250,5.3250
12.7250,4.5250
Z" /> 
<path style="fill:#4A5F65; fill-opacity:0.9000; stroke:none;fill-rule:evenodd;"
d="M 14.5250,3.5250
14.5250,4.3250
12.7250,4.3250
12.7250,3.5250
Z" /> 
<path style="fill:#4A5F65; fill-opacity:0.9000; stroke:none;fill-rule:evenodd;"
d="M 14.5250,2.5250
14.5250,3.3250
12.7250,3.3250
12.7250,2.5250
Z" /> 
<path style="fill:#4A5F65; fill-opacity:0.9000; stroke:none;fill-rule:evenodd;"
d="M 12.5250,0.3250
13.3250,0.3250
13.3250,2.1250
12.5250,2.1250
Z" /> 
<path style="fill:#4A5F65; fill-opacity:0.9000; stroke:none;fill-rule:evenodd;"
d="M 11.5250,0.3250
12.3250,0.3250
12.3250,2.1250
11.5250,2.1250
Z" /> 
<path style="fill:#4A5F65; fill-opacity:0.9000; stroke:none;fill-rule:evenodd;"
d="M 10.5250,0.3250
11.3250,0.3250
11.3250,2.1250
10.5250,2.1250
Z" /> 
<path style="fill:#4A5F65; fill-opacity:0.9000; stroke:none;fill-rule:evenodd;"
d="M 9.5250,0.3250
10.3250,0.3250
10.3250,2.1250
9.5250,2.1250
Z" /> 
<path style="fill:#4A5F65; fill-opacity:0.9000; stroke:none;fill-rule:evenodd;"
d="M 8.5250,0.3250
9.3250,0.3250
9.3250,2.1250
8.5250,2.1250
Z" /> 
<path style="fill:#4A5F65; fill-opacity:0.9000; stroke:none;fill-rule:evenodd;"
d="M 7.5250,0.3250
8.3250,0.3250
8.3250,2.1250
7.5250,2.1250
Z" /> 
<path style="fill:#4A5F65; fill-opacity:0.9000; stroke:none;fill-rule:evenodd;"
d="M 6.5250,0.3250
7.3250,0.3250
7.3250,2.1250
6.5250,2.1250
Z" /> 
<path style="fill:#4A5F65; fill-opacity:0.9000; stroke:none;fill-rule:evenodd;"
d="M 5.5250,0.3250
6.3250,0.3250
6.3250,2.1250
5.5250,2.1250
Z" /> 
<path style="fill:#4A5F65; fill-opacity:0.9000; stroke:none;fill-rule:evenodd;"
d="M 4.5250,0.3250
5.3250,0.3250
5.3250,2.1250
4.5250,2.1250
Z" /> 
<path style="fill:#4A5F65; fill-opacity:0.9000; stroke:none;fill-rule:evenodd;"
d="M 3.5250,0.3250
4.3250,0.3250
4.3250,2.1250
3.5250,2.1250
Z" /> 
<path style="fill:#4A5F65; fill-opacity:0.9000; stroke:none;fill-rule:evenodd;"
d="M 2.5250,0.3250
3.3250,0.3250
3.3250,2.1250
2.5250,2.1250
Z" /> 
<path style="fill:#4A5F65; fill-opacity:0.9000; stroke:none;fill-rule:evenodd;"
d="M 1.5250,0.3250
2.3250,0.3250
2.3250,2.1250
1.5250,2.1250
Z" /> 
</g>
<g style="fill:none; 
stroke:#0D115E; stroke-width:0.1000; stroke-opacity:1; 
stroke-linecap:round; stroke-linejoin:round;">
<text x="7.4250" y="7.4250"
textLength="4.3857" font-size="1.3333" lengthAdjust="spacingAndGlyphs"
text-anchor="middle" opacity="0" stroke-opacity="0">REF**</text>
<g class="stroked-text"><desc>REF**</desc>
<path d="M6.0917 7.3824
L5.7583 6.9062
" />
<path d="M5.5202 7.3824
L5.5202 6.3824
" />
<path d="M5.5202 6.3824
L5.9012 6.3824
" />
<path d="M5.9012 6.3824
L5.9964 6.4300
" />
<path d="M5.9964 6.4300
L6.0440 6.4777
" />
<path d="M6.0440 6.4777
L6.0917 6.5729
" />
<path d="M6.0917 6.5729
L6.0917 6.7158
" />
<path d="M6.0917 6.7158
L6.0440 6.8110
" />
<path d="M6.0440 6.8110
L5.9964 6.8586
" />
<path d="M5.9964 6.8586
L5.9012 6.9062
" />
<path d="M5.9012 6.9062
L5.5202 6.9062
" />
<path d="M6.5202 6.8586
L6.8536 6.8586
" />
<path d="M6.9964 7.3824
L6.5202 7.3824
" />
<path d="M6.5202 7.3824
L6.5202 6.3824
" />
<path d="M6.5202 6.3824
L6.9964 6.3824
" />
<path d="M7.7583 6.8586
L7.4250 6.8586
" />
<path d="M7.4250 7.3824
L7.4250 6.3824
" />
<path d="M7.4250 6.3824
L7.9012 6.3824
" />
<path d="M8.4250 6.3824
L8.4250 6.6205
" />
<path d="M8.1869 6.5253
L8.4250 6.6205
" />
<path d="M8.4250 6.6205
L8.6631 6.5253
" />
<path d="M8.2821 6.8110
L8.4250 6.6205
" />
<path d="M8.4250 6.6205
L8.5679 6.8110
" />
<path d="M9.1869 6.3824
L9.1869 6.6205
" />
<path d="M8.9488 6.5253
L9.1869 6.6205
" />
<path d="M9.1869 6.6205
L9.4250 6.5253
" />
<path d="M9.0440 6.8110
L9.1869 6.6205
" />
<path d="M9.1869 6.6205
L9.3298 6.8110
" />
</g></g>
<g style="fill:#0D115E; fill-opacity:1.0000; stroke:none;">
<circle cx="2.4250" cy="2.9250" r="0.1500" /> 
<path style="fill:none; 
stroke:#00D91D; stroke-width:0.0500; stroke-opacity:1; 
stroke-linecap:round; stroke-linejoin:round;fill:none"
d="M 0.0250,0.0250
14.8250,0.0250
14.8250,14.8250
0.0250,14.8250
Z" /> 
</g>
<g style="fill:none; 
stroke:#505050; stroke-width:0.1500; stroke-opacity:1; 
stroke-linecap:round; stroke-linejoin:round;">
<text x="7.4250" y="8.9250"
textLength="6.7738" font-size="1.3333" lengthAdjust="spacingAndGlyphs"
text-anchor="middle" opacity="0" stroke-opacity="0">RYLR993</text>
<g class="stroked-text"><desc>RYLR993</desc>
<path d="M4.9726 8.8798
L4.6393 8.4036
" />
<path d="M4.4012 8.8798
L4.4012 7.8798
" />
<path d="M4.4012 7.8798
L4.7821 7.8798
" />
<path d="M4.7821 7.8798
L4.8774 7.9274
" />
<path d="M4.8774 7.9274
L4.9250 7.9751
" />
<path d="M4.9250 7.9751
L4.9726 8.0703
" />
<path d="M4.9726 8.0703
L4.9726 8.2132
" />
<path d="M4.9726 8.2132
L4.9250 8.3084
" />
<path d="M4.9250 8.3084
L4.8774 8.3560
" />
<path d="M4.8774 8.3560
L4.7821 8.4036
" />
<path d="M4.7821 8.4036
L4.4012 8.4036
" />
<path d="M5.5917 8.4036
L5.5917 8.8798
" />
<path d="M5.2583 7.8798
L5.5917 8.4036
" />
<path d="M5.5917 8.4036
L5.9250 7.8798
" />
<path d="M6.7345 8.8798
L6.2583 8.8798
" />
<path d="M6.2583 8.8798
L6.2583 7.8798
" />
<path d="M7.6393 8.8798
L7.3060 8.4036
" />
<path d="M7.0679 8.8798
L7.0679 7.8798
" />
<path d="M7.0679 7.8798
L7.4488 7.8798
" />
<path d="M7.4488 7.8798
L7.5440 7.9274
" />
<path d="M7.5440 7.9274
L7.5917 7.9751
" />
<path d="M7.5917 7.9751
L7.6393 8.0703
" />
<path d="M7.6393 8.0703
L7.6393 8.2132
" />
<path d="M7.6393 8.2132
L7.5917 8.3084
" />
<path d="M7.5917 8.3084
L7.5440 8.3560
" />
<path d="M7.5440 8.3560
L7.4488 8.4036
" />
<path d="M7.4488 8.4036
L7.0679 8.4036
" />
<path d="M8.1155 8.8798
L8.3060 8.8798
" />
<path d="M8.3060 8.8798
L8.4012 8.8322
" />
<path d="M8.4012 8.8322
L8.4488 8.7846
" />
<path d="M8.4488 8.7846
L8.5440 8.6417
" />
<path d="M8.5440 8.6417
L8.5917 8.4512
" />
<path d="M8.5917 8.4512
L8.5917 8.0703
" />
<path d="M8.5917 8.0703
L8.5440 7.9751
" />
<path d="M8.5440 7.9751
L8.4964 7.9274
" />
<path d="M8.4964 7.9274
L8.4012 7.8798
" />
<path d="M8.4012 7.8798
L8.2107 7.8798
" />
<path d="M8.2107 7.8798
L8.1155 7.9274
" />
<path d="M8.1155 7.9274
L8.0679 7.9751
" />
<path d="M8.0679 7.9751
L8.0202 8.0703
" />
<path d="M8.0202 8.0703
L8.0202 8.3084
" />
<path d="M8.0202 8.3084
L8.0679 8.4036
" />
<path d="M8.0679 8.4036
L8.1155 8.4512
" />
<path d="M8.1155 8.4512
L8.2107 8.4989
" />
<path d="M8.2107 8.4989
L8.4012 8.4989
" />
<path d="M8.4012 8.4989
L8.4964 8.4512
" />
<path d="M8.4964 8.4512
L8.5440 8.4036
" />
<path d="M8.5440 8.4036
L8.5917 8.3084
" />
<path d="M9.0679 8.8798
L9.2583 8.8798
" />
<path d="M9.2583 8.8798
L9.3536 8.8322
" />
<path d="M9.3536 8.8322
L9.4012 8.7846
" />
<path d="M9.4012 8.7846
L9.4964 8.6417
" />
<path d="M9.4964 8.6417
L9.5440 8.4512
" />
<path d="M9.5440 8.4512
L9.5440 8.0703
" />
<path d="M9.5440 8.0703
L9.4964 7.9751
" />
<path d="M9.4964 7.9751
L9.4488 7.9274
" />
<path d="M9.4488 7.9274
L9.3536 7.8798
" />
<path d="M9.3536 7.8798
L9.1631 7.8798
" />
<path d="M9.1631 7.8798
L9.0679 7.9274
" />
<path d="M9.0679 7.9274
L9.0202 7.9751
" />
<path d="M9.0202 7.9751
L8.9726 8.0703
" />
<path d="M8.9726 8.0703
L8.9726 8.3084
" />
<path d="M8.9726 8.3084
L9.0202 8.4036
" />
<path d="M9.0202 8.4036
L9.0679 8.4512
" />
<path d="M9.0679 8.4512
L9.1631 8.4989
" />
<path d="M9.1631 8.4989
L9.3536 8.4989
" />
<path d="M9.3536 8.4989
L9.4488 8.4512
" />
<path d="M9.4488 8.4512
L9.4964 8.4036
" />
<path d="M9.4964 8.4036
L9.5440 8.3084
" />
<path d="M9.8774 7.8798
L10.4964 7.8798
" />
<path d="M10.4964 7.8798
L10.1631 8.2608
" />
<path d="M10.1631 8.2608
L10.3060 8.2608
" />
<path d="M10.3060 8.2608
L10.4012 8.3084
" />
<path d="M10.4012 8.3084
L10.4488 8.3560
" />
<path d="M10.4488 8.3560
L10.4964 8.4512
" />
<path d="M10.4964 8.4512
L10.4964 8.6893
" />
<path d="M10.4964 8.6893
L10.4488 8.7846
" />
<path d="M10.4488 8.7846
L10.4012 8.8322
" />
<path d="M10.4012 8.8322
L10.3060 8.8798
" />
<path d="M10.3060 8.8798
L10.0202 8.8798
" />
<path d="M10.0202 8.8798
L9.9250 8.8322
" />
<path d="M9.9250 8.8322
L9.8774 8.7846
" />
</g><text x="7.4250" y="10.4250"
textLength="4.5357" font-size="1.3333" lengthAdjust="spacingAndGlyphs"
text-anchor="middle" opacity="0" stroke-opacity="0">REF**</text>
<g class="stroked-text"><desc>REF**</desc>
<path d="M6.0917 10.3798
L5.7583 9.9036
" />
<path d="M5.5202 10.3798
L5.5202 9.3798
" />
<path d="M5.5202 9.3798
L5.9012 9.3798
" />
<path d="M5.9012 9.3798
L5.9964 9.4274
" />
<path d="M5.9964 9.4274
L6.0440 9.4751
" />
<path d="M6.0440 9.4751
L6.0917 9.5703
" />
<path d="M6.0917 9.5703
L6.0917 9.7132
" />
<path d="M6.0917 9.7132
L6.0440 9.8084
" />
<path d="M6.0440 9.8084
L5.9964 9.8560
" />
<path d="M5.9964 9.8560
L5.9012 9.9036
" />
<path d="M5.9012 9.9036
L5.5202 9.9036
" />
<path d="M6.5202 9.8560
L6.8536 9.8560
" />
<path d="M6.9964 10.3798
L6.5202 10.3798
" />
<path d="M6.5202 10.3798
L6.5202 9.3798
" />
<path d="M6.5202 9.3798
L6.9964 9.3798
" />
<path d="M7.7583 9.8560
L7.4250 9.8560
" />
<path d="M7.4250 10.3798
L7.4250 9.3798
" />
<path d="M7.4250 9.3798
L7.9012 9.3798
" />
<path d="M8.4250 9.3798
L8.4250 9.6179
" />
<path d="M8.1869 9.5227
L8.4250 9.6179
" />
<path d="M8.4250 9.6179
L8.6631 9.5227
" />
<path d="M8.2821 9.8084
L8.4250 9.6179
" />
<path d="M8.4250 9.6179
L8.5679 9.8084
" />
<path d="M9.1869 9.3798
L9.1869 9.6179
" />
<path d="M8.9488 9.5227
L9.1869 9.6179
" />
<path d="M9.1869 9.6179
L9.4250 9.5227
" />
<path d="M9.0440 9.8084
L9.1869 9.6179
" />
<path d="M9.1869 9.6179
L9.3298 9.8084
" />
</g><path style="fill:none; 
stroke:#505050; stroke-width:0.1000; stroke-opacity:1; 
stroke-linecap:round; stroke-linejoin:round;fill:none"
d="M 0.9250,0.9250
13.9250,0.9250
13.9250,13.9250
0.9250,13.9250
Z" /> 
</g>
<g style="fill:#505050; fill-opacity:1.0000; stroke:none;">
<circle cx="2.4250" cy="2.9250" r="0.1500" /> 
</g> 
</svg>
